<svg id="Layer_1" data-name="Layer 1" xmlns="http://www.w3.org/2000/svg" viewBox="0 0 128 128"><defs><style>.cls-1{fill:#1d75b8;}.cls-2{fill:#2d3e50;}</style></defs><title>a</title><path class="cls-1" d="M53.33187,35.9097H33.75416a21.93081,21.93081,0,0,0,0,43.86163H52.49l12.792,11.64962a2.56759,2.56759,0,0,0,4.29571-1.898V79.77133h3.11767A2.56972,2.56972,0,0,0,75.26267,77.204V57.8405A21.95541,21.95541,0,0,0,53.33187,35.9097Zm-26.539,26.057a4.23325,4.23325,0,1,1,4.23325-4.23325A4.23538,4.23538,0,0,1,26.7929,61.96666Zm16.74859,0a4.23325,4.23325,0,1,1,4.23623-4.23325A4.2329,4.2329,0,0,1,43.54149,61.96666Zm16.75157,0a4.23325,4.23325,0,1,1,4.23325-4.23325A4.23285,4.23285,0,0,1,60.29306,61.96666Z" id="id_101" style="fill: rgb(66, 184, 155);"></path><path class="cls-2" d="M116.17148,106.92776l-.43287-92.69665A13.25658,13.25658,0,0,0,102.49439.98689H53.37519A13.25658,13.25658,0,0,0,40.131,14.2311L40.052,31.1428h6.906l.04028-9.43927h61.873l.36068,84.54142H46.63762l.0926-21.70665H39.80263l-.10455,22.38947c0,.03866-.00514.07731-.00514.116v6.10677c0,7.39512,6.3902,13.86262,13.68225,13.86262h49.1192c7.292,0,13.68225-6.4675,13.68225-13.86262v-6.10677C116.17664,107.00507,116.17148,106.96641,116.17148,106.92776Z" id="id_102" style="fill: rgb(128, 128, 128);"></path></svg>