<?xml version="1.0" encoding="utf-8"?>
<!-- Generator: Adobe Illustrator 22.0.0, SVG Export Plug-In . SVG Version: 6.00 Build 0)  -->
<svg version="1.1" id="Layer_1" xmlns="http://www.w3.org/2000/svg" xmlns:xlink="http://www.w3.org/1999/xlink" x="0px" y="0px"
	 viewBox="0 0 32 32" style="enable-background:new 0 0 32 32;" xml:space="preserve">
<style type="text/css">
	.st0{fill:none;}
</style>
<g>
	<path class="st0" d="M16,19c-1.6,0-3-1.4-3-3c0-0.5,0.1-0.9,0.3-1.3l-1.5-1.5C11.3,14,11,15,11,16c0,2.8,2.2,5,5,5
		c1,0,2-0.3,2.8-0.8l-1.5-1.5C16.9,18.9,16.5,19,16,19z"/>
	<path class="st0" d="M16,11c-1,0-2,0.3-2.8,0.8l1.5,1.5c0.4-0.2,0.8-0.3,1.3-0.3c1.7,0,3,1.3,3,3c0,0.5-0.1,0.9-0.3,1.3l1.5,1.5
		C20.7,18,21,17,21,16C21,13.2,18.8,11,16,11z"/>
	<path d="M29.5,16c0-4.5-5.9-8-13.5-8c-2.1,0-4.1,0.3-5.8,0.8L5.7,4.3c-0.4-0.4-1-0.4-1.4,0c-0.4,0.4-0.4,1,0,1.4l3.8,3.8
		c-3.4,1.4-5.6,3.8-5.6,6.5c0,4.5,5.9,8,13.5,8c2.1,0,4.1-0.3,5.8-0.8l3.5,3.5c0.2,0.2,0.5,0.3,0.7,0.3s0.5-0.1,0.7-0.3
		c0.4-0.4,0.4-1,0-1.4l-2.8-2.8C27.3,21.1,29.5,18.7,29.5,16z M16,21c-2.8,0-5-2.2-5-5c0-1,0.3-2,0.8-2.8l1.5,1.5
		C13.1,15.1,13,15.5,13,16c0,1.6,1.4,3,3,3c0.5,0,0.9-0.1,1.3-0.3l1.5,1.5C18,20.7,17,21,16,21z M18.7,17.3c0.2-0.4,0.3-0.8,0.3-1.3
		c0-1.7-1.3-3-3-3c-0.5,0-0.9,0.1-1.3,0.3l-1.5-1.5C14,11.3,15,11,16,11c2.8,0,5,2.2,5,5c0,1-0.3,2-0.8,2.8L18.7,17.3z"/>
</g>
</svg>
